# xmcd
#
# Track frame offsets:
#	150
#	12659
#	27553
#	44030
#	54282
#	67087
#	81042
#	90831
#	110836
#	125173
#	138410
#	151583
#	166284
#	180790
#	193178
#	206624
#
# Disc length: 2941 seconds
#
# Revision: 1
# Processed by: cddbd v1.5.2PL0 Copyright (c) Steve Scherf et al.
# Submitted via: audiograbber 1.83.01
#
DISCID=db0b7b10
DTITLE=Suchy hrdla - Suchy hrdla
DYEAR=2000
DGENRE=Country
TTITLE0=Lod John "B"
TTITLE1=Smutny psani
TTITLE2=Vysocina
TTITLE3=Kapkami si dest
TTITLE4=Vlak pulnocni
TTITLE5=Dzungle
TTITLE6=Rockenet bay
TTITLE7=Tom Dooley
TTITLE8=Sedla vrzani
TTITLE9=Bila smrt
TTITLE10=Sing - sing
TTITLE11=Tulak
TTITLE12=Prazdny sedla
TTITLE13=Quadalcanal
TTITLE14=Irene
TTITLE15=Orlik city beer hills
EXTD=
EXTT0=
EXTT1=
EXTT2=
EXTT3=
EXTT4=
EXTT5=
EXTT6=
EXTT7=
EXTT8=
EXTT9=
EXTT10=
EXTT11=
EXTT12=
EXTT13=
EXTT14=
EXTT15=
PLAYORDER=
